<?xml version="1.0" encoding="UTF-8"?>
<svg id="Layer_2" data-name="Layer 2" xmlns="http://www.w3.org/2000/svg" viewBox="0 0 287.37 89.44">
  <defs>
    <style>
      .cls-1 {
        letter-spacing: 0em;
      }

      .cls-2 {
        fill: #fff;
      }

      .cls-3 {
        fill: #932e26;
      }

      .cls-4 {
        fill: #303671;
        font-family: CooperBlack, 'Cooper Black';
        font-size: 25.53px;
      }

      .cls-5, .cls-6 {
        fill: #832722;
      }

      .cls-7 {
        fill: #2c357d;
      }

      .cls-6 {
        font-family: Roboto-SemiBold, Roboto;
        font-size: 24.06px;
        font-weight: 600;
      }

      .cls-8 {
        fill: #323876;
      }
    </style>
  </defs>
  <g id="Layer_1-2" data-name="Layer 1">
    <g>
      <text class="cls-4" transform="translate(93.24 37.79) scale(1.04 1)"><tspan x="0" y="0">DHAKA</tspan><tspan class="cls-1" x="104.28" y="0">B</tspan><tspan x="122.61" y="0">ORA</tspan></text>
      <g>
        <path class="cls-2" d="M24.98,11.02h12.64v7.37h8.96v-6.85h13.96l10.96,20.93-11.49,21.46H24.72l5.97,10.49,34.15.05,17.24-31.52L65.63,0H30.96s-5.98,11.02-5.98,11.02ZM57.64,79.48H22.48l-10.81-22.4,11.11-19.42,35.91-.57-7.24-11.06-.77-.28c-11.46.18-22.95.09-34.39.67L0,58.22l17.67,31.09,34.01.13,5.97-9.96ZM64.23,71.84c.89-.45,2.78-1.88,3.36-2.04,6.52-1.82,13.03,2.61,11.9,9.79-.19,1.19-3.03,5.36-4.02,5.85-2.03,1.02-6.92,1.2-8.86-.06-1.51-.98-3.47-3.04-3.89-4.8-.95-4.02.3-5.36,1.51-8.75-.16.08-.49-.11-.91.26-.29.26-.88,1.42-1.07,1.84-3.75,8.42,5.48,16.74,13.39,12.07,10.19-6.03,2.39-21.45-8.74-16.64-.66.29-2.37,1.23-2.61,1.87-.08.22,0,.47-.05.6ZM71.86,81.85c.28-.25-2.68-6.62-2.93-6.94-.53-.67-1.4-.87-2.06-.29-.26.22-2.6,5.55-2.78,6.17-.29.99.19,1.55,1.28,1.29.67-.16.78-1.76,2.42-1.83,1.16-.05,1.75.48,2.01,1.56l2.07.04ZM78.11,75.34c-.98-1.18-4.57-1.35-5.92-.54-.62.8-.06,1.59-.05,2.43,0,.93-.24,4.3.24,4.75,1.66.27,6.5.5,6.33-2.09-.04-.62-.67-1.15-.75-1.66-.12-.81,1.09-1.74.14-2.89Z"/>
        <polygon class="cls-7" points="24.98 11.02 30.96 0 65.63 0 82.08 32.96 64.84 64.48 30.69 64.43 24.72 53.94 60.01 53.94 71.5 32.48 60.54 11.54 46.58 11.54 46.58 18.39 37.62 18.39 37.62 11.02 24.98 11.02"/>
        <path class="cls-5" d="M57.64,79.48l-5.97,9.96-34.01-.13L0,58.22l16.29-31.81c11.44-.59,22.93-.49,34.39-.67l.77.28,7.24,11.06-35.91.57-11.11,19.42,10.81,22.4h35.16Z"/>
        <path class="cls-3" d="M64.23,71.84c.05-.13-.03-.38.05-.6.23-.64,1.94-1.58,2.61-1.87,11.13-4.82,18.93,10.61,8.74,16.64-7.91,4.68-17.14-3.65-13.39-12.07.19-.42.78-1.58,1.07-1.84.42-.37.75-.18.91-.26-1.21,3.39-2.46,4.73-1.51,8.75.42,1.76,2.38,3.82,3.89,4.8,1.94,1.26,6.83,1.08,8.86.06.99-.5,3.83-4.67,4.02-5.85,1.13-7.19-5.38-11.61-11.9-9.79-.58.16-2.47,1.59-3.36,2.04Z"/>
        <path class="cls-8" d="M78.11,75.34c.95,1.15-.26,2.08-.14,2.89.08.52.7,1.04.75,1.66.17,2.59-4.67,2.36-6.33,2.09-.47-.45-.23-3.83-.24-4.75,0-.84-.57-1.63.05-2.43,1.35-.81,4.94-.64,5.92.54ZM74.23,76.06c0,.44-.13,1.42.42,1.55.94-.12,2.51-.52,1.25-1.51l-1.67-.04ZM76.32,80.51c.41-1.51-1.48-1.88-2.33-.86l.42,1.16,1.9-.3Z"/>
        <path class="cls-8" d="M68.93,74.91c-.53-.67-1.4-.87-2.06-.29-.26.22-2.6,5.56-2.78,6.17-.29.98.19,1.54,1.28,1.29.68-.16.78-1.76,2.42-1.83,1.16-.05,1.75.48,2.01,1.56l2.07.04c.28-.25-2.68-6.62-2.93-6.94ZM68.49,78.3h-1.48c-.3,0-.51-.29-.4-.57l.33-.84c.17-.43.59-.71,1.05-.71.18,0,.34.11.4.27l.51,1.28c.11.27-.1.57-.4.57Z"/>
        <path class="cls-2" d="M76.32,80.51l-1.9.3-.42-1.16c.85-1.02,2.73-.65,2.33.86Z"/>
        <path class="cls-2" d="M74.23,76.06l1.67.04c1.26.99-.32,1.39-1.25,1.51-.55-.13-.42-1.11-.42-1.55Z"/>
      </g>
      <text class="cls-6" transform="translate(93.59 63.63) scale(1.26 1)"><tspan x="0" y="0">ENGINEERING</tspan></text>
    </g>
  </g>
</svg>