<?xml version="1.0" encoding="UTF-8"?>
<svg id="Layer_2" data-name="Layer 2" xmlns="http://www.w3.org/2000/svg" viewBox="0 0 285.58 89.44">
  <defs>
    <style>
      .cls-1 {
        fill: #fff;
      }

      .cls-2 {
        fill: #932e26;
      }

      .cls-3 {
        fill: #832722;
      }

      .cls-4 {
        fill: #2c357d;
      }

      .cls-5 {
        fill: #303671;
      }

      .cls-6 {
        fill: #323876;
      }
    </style>
  </defs>
  <g id="Layer_1-2" data-name="Layer 1">
    <g>
      <g>
        <path class="cls-5" d="M99.21,37.79h-.94c-.55,0-1.16.03-1.83.08-.42.03-.72.05-.88.05-.58,0-1.05-.13-1.42-.39-.36-.26-.55-.59-.55-1.01,0-.29.08-.52.24-.68.16-.16.42-.29.79-.39.35-.08.58-.22.7-.41.12-.19.22-.55.29-1.09.07-.62.13-1.84.19-3.64.06-1.8.08-3.59.08-5.37,0-.7-.06-1.16-.17-1.4-.11-.23-.38-.42-.79-.56-.6-.22-.9-.59-.9-1.11,0-.41.21-.72.62-.95.41-.23.99-.34,1.72-.34.24,0,.53,0,.86.01.73.03,1.26.04,1.59.04,1.24,0,2.64-.04,4.2-.11.33-.02.74-.03,1.24-.03,1.98,0,3.55.22,4.71.65,1.72.65,3.01,1.74,3.87,3.27.77,1.35,1.16,2.95,1.16,4.81,0,.94-.14,1.88-.43,2.82s-.67,1.76-1.16,2.45c-1,1.4-2.39,2.38-4.16,2.94-1.04.33-2.15.5-3.33.5l-1.57-.05-1.35-.04c-1.05-.03-1.97-.05-2.77-.05ZM101.94,24.28v9.65c0,.52.12.9.35,1.12.23.22.62.33,1.17.33,2.53,0,3.8-1.85,3.8-5.54,0-2.04-.29-3.62-.88-4.74-.65-1.24-1.75-1.86-3.3-1.86-.42,0-.71.08-.88.24-.17.16-.25.42-.25.8Z"/>
        <path class="cls-5" d="M120.71,20.5c2.7,0,4.06.54,4.06,1.61,0,.29-.07.53-.21.71s-.4.39-.79.61c-.34.2-.55.46-.64.79s-.14.98-.14,1.97c0,.58.11.94.34,1.07.13.08.33.13.59.15s.89.02,1.87.02c.89,0,1.45-.04,1.66-.14s.33-.32.33-.69c0-1.1-.05-1.86-.16-2.29-.1-.43-.31-.73-.61-.88-.38-.21-.63-.38-.75-.53-.12-.15-.18-.34-.18-.58,0-.34.13-.65.4-.93s.62-.47,1.05-.57c.9-.21,2.03-.31,3.39-.31,1.59,0,2.77.14,3.53.42.76.28,1.14.71,1.14,1.3,0,.5-.27.87-.81,1.12-.34.15-.56.29-.66.43-.1.14-.19.39-.25.77-.03.21-.08,1.13-.13,2.77-.05,1.64-.08,2.94-.08,3.9,0,1.69.07,2.76.2,3.22.07.25.15.42.23.5.09.08.36.25.82.5.33.17.49.44.49.8,0,.63-.39,1.09-1.18,1.38s-2.06.43-3.82.43c-1.54,0-2.68-.15-3.42-.44-.67-.27-1-.68-1-1.23,0-.47.26-.84.77-1.11.25-.13.42-.27.51-.4.09-.13.18-.38.27-.74.16-.7.23-1.55.23-2.57,0-.52-.08-.85-.24-.97-.16-.12-.58-.19-1.25-.19-1.55,0-2.54.08-2.96.25-.17.07-.28.26-.33.59-.05.4-.08.89-.08,1.47,0,.95.14,1.63.42,2.04.1.13.32.3.68.51.36.2.55.53.55.98,0,.58-.42,1.03-1.26,1.33s-2.04.46-3.6.46c-1.42,0-2.58-.14-3.48-.42-.39-.12-.7-.3-.92-.53s-.33-.48-.33-.75.07-.49.21-.64c.14-.15.44-.34.91-.57.24-.12.41-.27.51-.45s.18-.49.23-.92c.13-.97.2-2.24.2-3.81,0-.29,0-.64-.01-1.03-.03-2-.05-3.13-.05-3.42,0-.71-.05-1.19-.19-1.42s-.49-.48-1.06-.75c-.38-.17-.57-.44-.57-.79,0-.84.85-1.42,2.55-1.75.99-.19,2-.29,3.04-.29Z"/>
        <path class="cls-5" d="M153.26,29.18l2.46,5.05c.23.47.43.77.58.92.16.15.39.24.72.29.62.09.94.4.94.91,0,.61-.38,1.04-1.14,1.31-.76.27-2.01.4-3.74.4-1.96,0-3.41-.08-4.36-.24-.43-.08-.78-.23-1.03-.46s-.38-.5-.38-.83c0-.25.07-.44.2-.58.13-.14.38-.26.75-.38.41-.13.61-.36.61-.67,0-.56-.35-.89-1.05-.99-.75-.1-1.82-.15-3.18-.15-1.15,0-1.84.07-2.07.2-.14.08-.26.23-.36.45-.1.22-.16.42-.16.62,0,.18.04.3.11.36.07.05.31.14.72.27.53.15.79.45.79.9,0,.99-1.24,1.48-3.71,1.48-1.4,0-2.44-.09-3.09-.27-.61-.17-.91-.56-.91-1.15,0-.26.07-.46.2-.6.13-.14.38-.27.72-.39.56-.19.99-.46,1.28-.8.29-.34.7-1.08,1.24-2.21l1.83-3.85c.68-1.41,1.13-2.47,1.36-3.17.23-.7.35-1.39.36-2.06,0-.71.05-1.21.14-1.49.08-.28.27-.55.55-.82.6-.58,1.36-.87,2.29-.87.88,0,1.71.33,2.51.98,1.11.9,2.72,3.51,4.84,7.84ZM144.21,30.75h2.55c.47,0,.7-.1.7-.3,0-.27-.32-.95-.97-2.02-.29-.49-.52-.82-.68-.98-.16-.17-.32-.25-.49-.25-.31,0-.57.28-.78.83-.03.08-.16.37-.38.88-.36.85-.55,1.35-.55,1.52,0,.21.2.31.6.31Z"/>
        <path class="cls-5" d="M173.5,24.18l-1.39,1.28c-.51.47-.77.89-.77,1.27,0,.21.06.42.18.62.12.21.34.49.66.85l4.86,5.4c.43.48.73.79.9.92.17.13.41.26.74.41.47.19.8.4,1,.64.19.23.29.54.29.91,0,.88-.65,1.32-1.96,1.32h-4.93c-.34,0-.6-.07-.8-.21s-.5-.49-.93-1.05c-.68-.89-1.57-1.91-2.68-3.07-.49-.5-.83-.83-1.02-.98-.2-.15-.38-.23-.54-.23-.5,0-.75.45-.75,1.36,0,.74.16,1.25.49,1.53.06.04.2.13.42.27.47.29.7.65.7,1.08,0,.55-.38.94-1.14,1.18-.76.24-2.05.36-3.85.36-1.6,0-2.77-.09-3.51-.27-.31-.08-.57-.23-.76-.45-.19-.22-.29-.47-.29-.74,0-.44.26-.82.78-1.13.23-.15.4-.31.5-.49s.19-.48.28-.9c.17-.94.26-2.39.26-4.34,0-2.33-.09-3.98-.27-4.95-.07-.4-.17-.69-.29-.86s-.33-.34-.64-.51c-.49-.27-.73-.64-.73-1.11,0-.4.15-.72.46-.96.3-.24.79-.42,1.46-.55.88-.17,1.99-.25,3.33-.25s2.37.12,3.03.37c.59.23.88.65.88,1.25,0,.25-.05.44-.14.58-.09.14-.33.35-.71.64-.14.12-.27.39-.38.83s-.18.87-.18,1.3c0,.7.17,1.05.49,1.05.2,0,.39-.08.58-.25.19-.17.56-.58,1.12-1.25.65-.77.97-1.3.97-1.58,0-.15-.08-.37-.25-.67-.11-.21-.17-.4-.17-.57,0-.62.35-1.05,1.04-1.3.69-.25,1.88-.38,3.55-.38,1.33,0,2.32.08,2.96.25.79.21,1.18.65,1.18,1.32,0,.27-.08.51-.25.74s-.37.38-.61.44c-.18.06-.6.09-1.26.1-.46,0-.8.06-1.03.16s-.53.31-.89.64Z"/>
        <path class="cls-5" d="M197.29,29.18l2.46,5.05c.23.47.43.77.58.92.16.15.39.24.72.29.62.09.94.4.94.91,0,.61-.38,1.04-1.14,1.31-.76.27-2.01.4-3.74.4-1.96,0-3.41-.08-4.36-.24-.43-.08-.78-.23-1.03-.46s-.38-.5-.38-.83c0-.25.07-.44.2-.58.13-.14.38-.26.75-.38.41-.13.61-.36.61-.67,0-.56-.35-.89-1.05-.99-.75-.1-1.82-.15-3.18-.15-1.15,0-1.84.07-2.07.2-.14.08-.26.23-.36.45-.1.22-.16.42-.16.62,0,.18.04.3.11.36.07.05.31.14.72.27.53.15.79.45.79.9,0,.99-1.24,1.48-3.71,1.48-1.4,0-2.44-.09-3.09-.27-.61-.17-.91-.56-.91-1.15,0-.26.07-.46.2-.6.13-.14.38-.27.72-.39.56-.19.99-.46,1.28-.8.29-.34.7-1.08,1.24-2.21l1.83-3.85c.68-1.41,1.13-2.47,1.36-3.17.23-.7.35-1.39.36-2.06,0-.71.05-1.21.14-1.49.08-.28.27-.55.55-.82.6-.58,1.36-.87,2.29-.87.88,0,1.71.33,2.51.98,1.11.9,2.72,3.51,4.84,7.84ZM188.24,30.75h2.55c.47,0,.7-.1.7-.3,0-.27-.32-.95-.97-2.02-.29-.49-.52-.82-.68-.98-.16-.17-.32-.25-.49-.25-.31,0-.57.28-.78.83-.03.08-.16.37-.38.88-.36.85-.55,1.35-.55,1.52,0,.21.2.31.6.31Z"/>
        <path class="cls-5" d="M209.55,37.78h-1.74c-1.22.03-2.12.05-2.68.09-.5.04-.86.06-1.08.06-.53,0-.95-.13-1.26-.39-.3-.26-.46-.57-.46-.92,0-.23.06-.42.17-.55.11-.13.39-.34.82-.62.25-.17.42-.43.52-.78.09-.35.2-1.11.31-2.27.17-1.81.25-4.04.25-6.69,0-.97-.07-1.62-.2-1.94-.13-.32-.45-.58-.94-.79-.57-.23-.86-.57-.86-1.02,0-.37.17-.67.51-.9.34-.23.78-.35,1.32-.35.29,0,.67.01,1.13.04.76.03,1.59.05,2.47.05.65,0,1.93-.02,3.83-.07.6-.02,1.14-.03,1.62-.03,1.15,0,2.08.09,2.79.27.71.18,1.32.48,1.84.9.85.69,1.27,1.61,1.27,2.77,0,.57-.13,1.13-.38,1.68-.25.54-.59.98-1.01,1.3-.3.23-.46.44-.46.64,0,.21.18.38.55.52.71.27,1.36.74,1.94,1.38.6.67.9,1.52.9,2.53,0,1.2-.46,2.29-1.37,3.28-1.21,1.3-2.99,1.96-5.34,1.96-.32,0-1.11-.02-2.37-.06-1.14-.04-1.85-.07-2.11-.08ZM210.45,24.25v2.57c0,.41.05.69.16.86.11.17.3.25.57.25.64,0,1.11-.19,1.42-.57.3-.38.45-.97.45-1.78s-.16-1.39-.47-1.81c-.31-.43-.75-.64-1.33-.64-.3,0-.51.08-.63.24s-.18.46-.18.88ZM210.45,31.43v1.18c0,1.09.08,1.81.25,2.17.16.36.5.54,1,.54,1.32,0,1.98-.74,1.98-2.22,0-1.84-.74-2.77-2.21-2.77-.38,0-.65.08-.79.24s-.22.44-.22.86Z"/>
        <path class="cls-5" d="M231.61,20.43c2.23,0,4.17.61,5.84,1.83,1.13.84,2.04,1.93,2.74,3.27.68,1.33,1.03,2.66,1.03,3.99,0,1.96-.68,3.71-2.03,5.26-1.14,1.31-2.64,2.26-4.49,2.83-1.13.35-2.27.52-3.42.52-1.5,0-2.93-.3-4.3-.9-1.66-.72-2.95-1.82-3.89-3.28-.91-1.41-1.37-2.97-1.37-4.67,0-1.98.58-3.72,1.75-5.24,1.04-1.35,2.44-2.33,4.2-2.97,1.18-.43,2.49-.65,3.93-.65ZM230.38,24c-.73,0-1.3.31-1.73.93-.33.47-.49,1.02-.49,1.66,0,.94.2,2.03.6,3.26.4,1.23.9,2.33,1.51,3.29.27.41.6.73.99.97.39.24.79.36,1.2.36.66,0,1.19-.24,1.59-.71s.6-1.1.6-1.87c0-1-.17-2.09-.51-3.25-.34-1.16-.78-2.16-1.31-2.98-.33-.51-.71-.91-1.14-1.2s-.87-.44-1.31-.46Z"/>
        <path class="cls-5" d="M250.85,30.64c-.33,0-.54.1-.63.29-.09.19-.14.64-.14,1.33,0,1.06.07,1.88.21,2.47.04.17.11.29.2.39.09.09.25.2.49.34.52.27.78.64.78,1.08,0,.55-.36.94-1.08,1.17s-1.95.34-3.67.34c-3.21,0-4.81-.58-4.81-1.75,0-.2.05-.36.14-.48.1-.12.31-.29.65-.5.38-.24.64-.53.77-.85.13-.33.23-.9.28-1.7.04-.59.07-2.71.07-6.35,0-1.15-.06-1.94-.18-2.36s-.38-.72-.78-.91c-.38-.17-.64-.33-.77-.48s-.2-.33-.2-.57c0-.31.12-.58.37-.8.25-.23.59-.4,1.03-.5.37-.09.88-.14,1.53-.14.29,0,1,.04,2.14.12.22.02.56.02,1.03.02.78,0,1.82-.05,3.12-.15.82-.06,1.4-.09,1.73-.09,1.85,0,3.39.43,4.6,1.28,1.09.77,1.64,1.85,1.64,3.22,0,.76-.19,1.46-.57,2.09-.38.63-.91,1.1-1.57,1.42-.28.13-.42.29-.42.47,0,.24.21.44.64.59.91.32,1.58.79,2,1.43s.73,1.62.91,2.94c.08.55.19.9.34,1.07s.49.32,1.03.47c.16.05.3.16.42.32.11.16.17.34.17.54,0,.26-.1.52-.31.78s-.48.47-.81.62c-.73.32-1.72.49-2.99.49-1.69,0-2.9-.43-3.63-1.28-.33-.38-.61-.86-.84-1.45-.23-.58-.5-1.49-.81-2.72-.2-.79-.45-1.35-.76-1.67s-.75-.5-1.32-.52ZM250.1,24.28l-.14,2.9v.11c0,.3.05.5.14.6.09.1.27.15.55.15.76,0,1.32-.19,1.66-.57s.52-.98.52-1.81c0-1.6-.59-2.41-1.78-2.41-.34,0-.58.08-.71.22s-.22.42-.23.8Z"/>
        <path class="cls-5" d="M279.82,29.18l2.46,5.05c.23.47.43.77.58.92.16.15.39.24.72.29.62.09.94.4.94.91,0,.61-.38,1.04-1.14,1.31-.76.27-2.01.4-3.74.4-1.96,0-3.41-.08-4.36-.24-.43-.08-.78-.23-1.03-.46s-.38-.5-.38-.83c0-.25.07-.44.2-.58.13-.14.38-.26.75-.38.41-.13.61-.36.61-.67,0-.56-.35-.89-1.05-.99-.75-.1-1.82-.15-3.18-.15-1.15,0-1.84.07-2.07.2-.14.08-.26.23-.36.45-.1.22-.16.42-.16.62,0,.18.04.3.11.36.07.05.31.14.72.27.53.15.79.45.79.9,0,.99-1.24,1.48-3.71,1.48-1.4,0-2.44-.09-3.09-.27-.61-.17-.91-.56-.91-1.15,0-.26.07-.46.2-.6.13-.14.38-.27.72-.39.56-.19.99-.46,1.28-.8.29-.34.7-1.08,1.24-2.21l1.83-3.85c.68-1.41,1.13-2.47,1.36-3.17.23-.7.35-1.39.36-2.06,0-.71.05-1.21.14-1.49.08-.28.27-.55.55-.82.6-.58,1.36-.87,2.29-.87.88,0,1.71.33,2.51.98,1.11.9,2.72,3.51,4.84,7.84ZM270.77,30.75h2.55c.47,0,.7-.1.7-.3,0-.27-.32-.95-.97-2.02-.29-.49-.52-.82-.68-.98-.16-.17-.32-.25-.49-.25-.31,0-.57.28-.78.83-.03.08-.16.37-.38.88-.36.85-.55,1.35-.55,1.52,0,.21.2.31.6.31Z"/>
      </g>
      <g>
        <path class="cls-1" d="M24.98,11.02h12.64v7.37h8.96v-6.85h13.96l10.96,20.93-11.49,21.46H24.72l5.97,10.49,34.15.05,17.24-31.52L65.63,0H30.96s-5.98,11.02-5.98,11.02ZM57.64,79.48H22.48l-10.81-22.4,11.11-19.42,35.91-.57-7.24-11.06-.77-.28c-11.46.18-22.95.09-34.39.67L0,58.22l17.67,31.09,34.01.13,5.97-9.96ZM64.23,71.84c.89-.45,2.78-1.88,3.36-2.04,6.52-1.82,13.03,2.61,11.9,9.79-.19,1.19-3.03,5.36-4.02,5.85-2.03,1.02-6.92,1.2-8.86-.06-1.51-.98-3.47-3.04-3.89-4.8-.95-4.02.3-5.36,1.51-8.75-.16.08-.49-.11-.91.26-.29.26-.88,1.42-1.07,1.84-3.75,8.42,5.48,16.74,13.39,12.07,10.19-6.03,2.39-21.45-8.74-16.64-.66.29-2.37,1.23-2.61,1.87-.08.22,0,.47-.05.6ZM71.86,81.85c.28-.25-2.68-6.62-2.93-6.94-.53-.67-1.4-.87-2.06-.29-.26.22-2.6,5.55-2.78,6.17-.29.99.19,1.55,1.28,1.29.67-.16.78-1.76,2.42-1.83,1.16-.05,1.75.48,2.01,1.56l2.07.04ZM78.11,75.34c-.98-1.18-4.57-1.35-5.92-.54-.62.8-.06,1.59-.05,2.43,0,.93-.24,4.3.24,4.75,1.66.27,6.5.5,6.33-2.09-.04-.62-.67-1.15-.75-1.66-.12-.81,1.09-1.74.14-2.89Z"/>
        <polygon class="cls-4" points="24.98 11.02 30.96 0 65.63 0 82.08 32.96 64.84 64.48 30.69 64.43 24.72 53.94 60.01 53.94 71.5 32.48 60.54 11.54 46.58 11.54 46.58 18.39 37.62 18.39 37.62 11.02 24.98 11.02"/>
        <path class="cls-3" d="M57.64,79.48l-5.97,9.96-34.01-.13L0,58.22l16.29-31.81c11.44-.59,22.93-.49,34.39-.67l.77.28,7.24,11.06-35.91.57-11.11,19.42,10.81,22.4h35.16Z"/>
        <path class="cls-2" d="M64.23,71.84c.05-.13-.03-.38.05-.6.23-.64,1.94-1.58,2.61-1.87,11.13-4.82,18.93,10.61,8.74,16.64-7.91,4.68-17.14-3.65-13.39-12.07.19-.42.78-1.58,1.07-1.84.42-.37.75-.18.91-.26-1.21,3.39-2.46,4.73-1.51,8.75.42,1.76,2.38,3.82,3.89,4.8,1.94,1.26,6.83,1.08,8.86.06.99-.5,3.83-4.67,4.02-5.85,1.13-7.19-5.38-11.61-11.9-9.79-.58.16-2.47,1.59-3.36,2.04Z"/>
        <path class="cls-6" d="M78.11,75.34c.95,1.15-.26,2.08-.14,2.89.08.52.7,1.04.75,1.66.17,2.59-4.67,2.36-6.33,2.09-.47-.45-.23-3.83-.24-4.75,0-.84-.57-1.63.05-2.43,1.35-.81,4.94-.64,5.92.54ZM74.23,76.06c0,.44-.13,1.42.42,1.55.94-.12,2.51-.52,1.25-1.51l-1.67-.04ZM76.32,80.51c.41-1.51-1.48-1.88-2.33-.86l.42,1.16,1.9-.3Z"/>
        <path class="cls-6" d="M68.93,74.91c-.53-.67-1.4-.87-2.06-.29-.26.22-2.6,5.56-2.78,6.17-.29.98.19,1.54,1.28,1.29.68-.16.78-1.76,2.42-1.83,1.16-.05,1.75.48,2.01,1.56l2.07.04c.28-.25-2.68-6.62-2.93-6.94ZM68.49,78.3h-1.48c-.3,0-.51-.29-.4-.57l.33-.84c.17-.43.59-.71,1.05-.71.18,0,.34.11.4.27l.51,1.28c.11.27-.1.57-.4.57Z"/>
        <path class="cls-1" d="M76.32,80.51l-1.9.3-.42-1.16c.85-1.02,2.73-.65,2.33.86Z"/>
        <path class="cls-1" d="M74.23,76.06l1.67.04c1.26.99-.32,1.39-1.25,1.51-.55-.13-.42-1.11-.42-1.55Z"/>
      </g>
      <g>
        <path class="cls-3" d="M99.72,46.52v17.11h-4.07v-17.11h4.07ZM109.9,46.52v2.55h-11.42v-2.55h11.42ZM108.45,53.58v2.48h-9.97v-2.48h9.97ZM109.94,61.09v2.54h-11.46v-2.54h11.46Z"/>
        <path class="cls-3" d="M130.09,46.52v17.11h-4.09l-9.17-11.87v11.87h-4.07v-17.11h4.07l9.2,11.88v-11.88h4.06Z"/>
        <path class="cls-3" d="M151.05,54.78v6.66c-.32.32-.81.67-1.49,1.05-.68.38-1.56.7-2.64.97-1.09.27-2.42.41-4,.41-1.37,0-2.63-.18-3.76-.55s-2.11-.9-2.93-1.6c-.82-.71-1.45-1.57-1.9-2.58-.44-1.02-.67-2.18-.67-3.49v-1.13c0-1.31.21-2.47.63-3.49.42-1.02,1.02-1.88,1.81-2.58s1.73-1.24,2.83-1.61c1.1-.37,2.33-.55,3.7-.55,1.83,0,3.33.24,4.51.72,1.18.48,2.09,1.13,2.72,1.97.63.83,1.03,1.79,1.18,2.87h-3.97c-.11-.59-.33-1.12-.65-1.57s-.79-.8-1.38-1.06c-.6-.25-1.37-.38-2.32-.38-.8,0-1.51.13-2.12.38-.61.25-1.13.62-1.54,1.09-.42.48-.73,1.07-.94,1.77-.21.7-.32,1.51-.32,2.42v1.15c0,.92.12,1.73.36,2.44.24.71.58,1.3,1.03,1.79.45.48,1.01.85,1.67,1.09.67.25,1.42.37,2.27.37.77,0,1.41-.05,1.92-.16.51-.11.92-.23,1.22-.38s.54-.29.71-.43v-3.21h-4.28v-2.36h8.35Z"/>
        <path class="cls-3" d="M159.24,46.52v17.11h-4.07v-17.11h4.07Z"/>
        <path class="cls-3" d="M180.95,46.52v17.11h-4.09l-9.17-11.87v11.87h-4.07v-17.11h4.07l9.2,11.88v-11.88h4.06Z"/>
        <path class="cls-3" d="M189.16,46.52v17.11h-4.07v-17.11h4.07ZM199.33,46.52v2.55h-11.42v-2.55h11.42ZM197.88,53.58v2.48h-9.97v-2.48h9.97ZM199.38,61.09v2.54h-11.46v-2.54h11.46Z"/>
        <path class="cls-3" d="M206.26,46.52v17.11h-4.07v-17.11h4.07ZM216.44,46.52v2.55h-11.42v-2.55h11.42ZM214.99,53.58v2.48h-9.97v-2.48h9.97ZM216.49,61.09v2.54h-11.46v-2.54h11.46Z"/>
        <path class="cls-3" d="M219.3,46.52h7.84c1.64,0,3.05.2,4.22.59,1.18.39,2.08.97,2.71,1.74s.95,1.71.95,2.83c0,.88-.2,1.65-.59,2.3-.4.65-.95,1.2-1.67,1.63-.72.44-1.56.78-2.53,1.03l-1.27.52h-6.92l-.03-2.55h5.17c.84,0,1.54-.12,2.09-.35.55-.23.97-.56,1.25-.97.28-.42.42-.89.42-1.42,0-.57-.14-1.07-.42-1.49s-.7-.74-1.26-.97c-.56-.23-1.27-.34-2.13-.34h-3.76v14.56h-4.07v-17.11ZM231.47,63.63l-4.99-7.66h4.31s5.05,7.5,5.05,7.5v.16h-4.37Z"/>
        <path class="cls-3" d="M242.91,46.52v17.11h-4.07v-17.11h4.07Z"/>
        <path class="cls-3" d="M264.62,46.52v17.11h-4.09l-9.17-11.87v11.87h-4.07v-17.11h4.07l9.2,11.88v-11.88h4.06Z"/>
        <path class="cls-3" d="M285.58,54.78v6.66c-.32.32-.81.67-1.49,1.05-.68.38-1.56.7-2.64.97-1.09.27-2.42.41-4,.41-1.37,0-2.63-.18-3.76-.55s-2.11-.9-2.93-1.6c-.82-.71-1.45-1.57-1.9-2.58-.44-1.02-.67-2.18-.67-3.49v-1.13c0-1.31.21-2.47.63-3.49.42-1.02,1.02-1.88,1.81-2.58s1.73-1.24,2.83-1.61c1.1-.37,2.33-.55,3.7-.55,1.83,0,3.33.24,4.51.72,1.18.48,2.09,1.13,2.72,1.97.63.83,1.03,1.79,1.18,2.87h-3.97c-.11-.59-.33-1.12-.65-1.57s-.79-.8-1.38-1.06c-.6-.25-1.37-.38-2.32-.38-.8,0-1.51.13-2.12.38-.61.25-1.13.62-1.54,1.09-.42.48-.73,1.07-.94,1.77-.21.7-.32,1.51-.32,2.42v1.15c0,.92.12,1.73.36,2.44.24.71.58,1.3,1.03,1.79.45.48,1.01.85,1.67,1.09.67.25,1.42.37,2.27.37.77,0,1.41-.05,1.92-.16.51-.11.92-.23,1.22-.38s.54-.29.71-.43v-3.21h-4.28v-2.36h8.35Z"/>
      </g>
    </g>
  </g>
</svg>