<?xml version="1.0" encoding="UTF-8"?>
<svg id="Layer_2" data-name="Layer 2" xmlns="http://www.w3.org/2000/svg" viewBox="0 0 287.37 89.44">
  <defs>
    <style>
      .cls-1 {
        font-family: CooperBlack, 'Cooper Black';
        font-size: 25.53px;
      }

      .cls-1, .cls-2, .cls-3 {
        fill: #2c357d;
      }

      .cls-4 {
        letter-spacing: 0em;
      }

      .cls-2 {
        font-family: Roboto-SemiBold, Roboto;
        font-size: 24.06px;
        font-weight: 600;
      }
    </style>
  </defs>
  <g id="Layer_1-2" data-name="Layer 1">
    <g>
      <text class="cls-1" transform="translate(93.24 37.79) scale(1.04 1)"><tspan x="0" y="0">DHAKA</tspan><tspan class="cls-4" x="104.28" y="0">B</tspan><tspan x="122.61" y="0">ORA</tspan></text>
      <g>
        <polygon class="cls-3" points="24.98 11.02 30.96 0 65.63 0 82.08 32.96 64.84 64.48 30.69 64.43 24.72 53.94 60.01 53.94 71.5 32.48 60.54 11.54 46.58 11.54 46.58 18.39 37.62 18.39 37.62 11.02 24.98 11.02"/>
        <path class="cls-3" d="M57.64,79.48l-5.97,9.96-34.01-.13L0,58.22l16.29-31.81c11.44-.59,22.93-.49,34.39-.67l.77.28,7.24,11.06-35.91.57-11.11,19.42,10.81,22.4h35.16Z"/>
        <path class="cls-3" d="M64.23,71.84c.05-.13-.03-.38.05-.6.23-.64,1.94-1.58,2.61-1.87,11.13-4.82,18.93,10.61,8.74,16.64-7.91,4.68-17.14-3.65-13.39-12.07.19-.42.78-1.58,1.07-1.84.42-.37.75-.18.91-.26-1.21,3.39-2.46,4.73-1.51,8.75.42,1.76,2.38,3.82,3.89,4.8,1.94,1.26,6.83,1.08,8.86.06.99-.5,3.83-4.67,4.02-5.85,1.13-7.19-5.38-11.61-11.9-9.79-.58.16-2.47,1.59-3.36,2.04Z"/>
        <path class="cls-3" d="M78.11,75.34c.95,1.15-.26,2.08-.14,2.89.08.52.7,1.04.75,1.66.17,2.59-4.67,2.36-6.33,2.09-.47-.45-.23-3.83-.24-4.75,0-.84-.57-1.63.05-2.43,1.35-.81,4.94-.64,5.92.54ZM74.23,76.06c0,.44-.13,1.42.42,1.55.94-.12,2.51-.52,1.25-1.51l-1.67-.04ZM76.32,80.51c.41-1.51-1.48-1.88-2.33-.86l.42,1.16,1.9-.3Z"/>
        <path class="cls-3" d="M68.93,74.91c-.53-.67-1.4-.87-2.06-.29-.26.22-2.6,5.56-2.78,6.17-.29.98.19,1.54,1.28,1.29.68-.16.78-1.76,2.42-1.83,1.16-.05,1.75.48,2.01,1.56l2.07.04c.28-.25-2.68-6.62-2.93-6.94ZM68.49,78.3h-1.48c-.3,0-.51-.29-.4-.57l.33-.84c.17-.43.59-.71,1.05-.71.18,0,.34.11.4.27l.51,1.28c.11.27-.1.57-.4.57Z"/>
      </g>
      <text class="cls-2" transform="translate(93.59 63.63) scale(1.26 1)"><tspan x="0" y="0">ENGINEERING</tspan></text>
    </g>
  </g>
</svg>